# xmcd
#
# Track frame offsets: 
#        150
#        24371
#        48984
#        93998
#        129449
#        148613
#
# Disc length: 2719 seconds
#
# Revision: 2
# Processed by: cddbd v1.5.2PL0 Copyright (c) Steve Scherf et al.
# Submitted via: ExactAudioCopy v1.0b3
#
DISCID=460a9d06
DTITLE=Maynard Ferguson - M.F. Horn
DYEAR=1971
DGENRE=Jazz
TTITLE0=Eli's Comin'
TTITLE1=Ballad To Max
TTITLE2=MacArthur Park
TTITLE3=Chala Nata
TTITLE4=If I Thought You'd Ever Change Your Mind
TTITLE5=L-Dopa
EXTD=YEAR: 1971
EXTT0=
EXTT1=
EXTT2=
EXTT3=
EXTT4=
EXTT5=
PLAYORDER=
